<svg height="24" viewBox="0 0 24 24" width="24" xmlns="http://www.w3.org/2000/svg"><g fill="#141414" fill-rule="evenodd"><g fill-rule="nonzero"><path d="m10 2v2h4v-2zm0-2h4c1.1045695 0 2 .8954305 2 2v2c0 1.1045695-.8954305 2-2 2h-4c-1.1045695 0-2-.8954305-2-2v-2c0-1.1045695.8954305-2 2-2z"/><path d="m3 6c-.55228475 0-1-.44771525-1-1s.44771525-1 1-1h18c.5522847 0 1 .44771525 1 1s-.4477153 1-1 1z"/><path d="m6 6v14h12v-14zm0-2h12c1.1045695 0 2 .8954305 2 2v14c0 1.1045695-.8954305 2-2 2h-12c-1.1045695 0-2-.8954305-2-2v-14c0-1.1045695.8954305-2 2-2z"/></g><rect height="10" rx="1" width="2" x="8" y="8"/><rect height="10" rx="1" width="2" x="11" y="8"/><rect height="10" rx="1" width="2" x="14" y="8"/></g></svg>